<?xml version="1.0" encoding="utf-8"?>
<!-- Generator: Adobe Illustrator 22.0.0, SVG Export Plug-In . SVG Version: 6.00 Build 0)  -->
<svg version="1.1" id="Layer_1" xmlns="http://www.w3.org/2000/svg" xmlns:xlink="http://www.w3.org/1999/xlink" x="0px" y="0px"
	 viewBox="0 0 3270.9 1589.6" style="enable-background:new 0 0 3270.9 1589.6;" xml:space="preserve">
<style type="text/css">
	.st0{display:none;}
	.st1{display:inline;filter:url(#Adobe_OpacityMaskFilter);}
	.st2{filter:url(#Adobe_OpacityMaskFilter_1_);}
	.st3{mask:url(#SVGID_1_);fill:url(#SVGID_2_);}
	.st4{display:inline;fill:url(#SVGID_3_);}
	.st5{fill:#4273AE;}
	.st6{fill:url(#SVGID_4_);}
	.st7{fill:url(#SVGID_5_);}
	.st8{fill:url(#SVGID_6_);}
	.st9{fill:url(#SVGID_7_);}
	.st10{fill:#74A4D6;}
	.st11{fill:url(#SVGID_8_);}
	.st12{fill:url(#SVGID_9_);}
	.st13{fill:url(#SVGID_10_);}
	.st14{fill:url(#SVGID_11_);}
	.st15{fill:url(#SVGID_12_);}
	.st16{fill:url(#SVGID_13_);}
	.st17{fill:url(#SVGID_14_);}
	.st18{fill:url(#SVGID_15_);}
	.st19{fill:url(#SVGID_16_);}
	.st20{fill:url(#SVGID_17_);}
	.st21{fill:url(#SVGID_18_);}
</style>
<g>
	<g>
		<g class="st0">
			<defs>
				<filter id="Adobe_OpacityMaskFilter" filterUnits="userSpaceOnUse" x="-130.2" y="559.7" width="792.1" height="600.6">
					<feFlood  style="flood-color:white;flood-opacity:1" result="back"/>
					<feBlend  in="SourceGraphic" in2="back" mode="normal"/>
				</filter>
			</defs>
			<mask maskUnits="userSpaceOnUse" x="-130.2" y="559.7" width="792.1" height="600.6" id="SVGID_1_" style="display:inline;">
				<g style="filter:url(#Adobe_OpacityMaskFilter);">
					<defs>
						<filter id="Adobe_OpacityMaskFilter_1_" filterUnits="userSpaceOnUse" x="-130.2" y="559.7" width="792.1" height="600.6">
							<feFlood  style="flood-color:white;flood-opacity:1" result="back"/>
							<feBlend  in="SourceGraphic" in2="back" mode="normal"/>
						</filter>
					</defs>
					<mask maskUnits="userSpaceOnUse" x="-130.2" y="559.7" width="792.1" height="600.6" id="SVGID_1_">
						<g class="st2">
						</g>
					</mask>
					
						<linearGradient id="SVGID_2_" gradientUnits="userSpaceOnUse" x1="310.0334" y1="1352.8854" x2="310.0334" y2="917.6122" gradientTransform="matrix(0.8639 0.5037 -0.5037 0.8639 517.0887 -325.7899)">
						<stop  offset="0" style="stop-color:#BFBFBF"/>
						<stop  offset="0.1097" style="stop-color:#999999"/>
						<stop  offset="0.2404" style="stop-color:#727272"/>
						<stop  offset="0.3761" style="stop-color:#525252"/>
						<stop  offset="0.5161" style="stop-color:#393939"/>
						<stop  offset="0.6619" style="stop-color:#272727"/>
						<stop  offset="0.8176" style="stop-color:#1D1D1D"/>
						<stop  offset="1" style="stop-color:#1A1A1A"/>
					</linearGradient>
					<path class="st3" d="M182.6,948.4C36.3,821.4-36.1,709.1,0.3,649.8c55-89.5,335-21.1,661.6,172.4c-8.3-5.2-16.6-10.3-25.1-15.5
						c-355-215.8-693.9-307.6-756.9-205c-61.2,99.8,161.1,346.7,500.1,558.7C301.3,1098.5,234.5,1026.6,182.6,948.4z"/>
				</g>
			</mask>
			
				<linearGradient id="SVGID_3_" gradientUnits="userSpaceOnUse" x1="310.0334" y1="1352.8854" x2="310.0334" y2="917.6122" gradientTransform="matrix(0.8639 0.5037 -0.5037 0.8639 517.0887 -325.7899)">
				<stop  offset="0" style="stop-color:#9A999E"/>
				<stop  offset="7.119715e-02" style="stop-color:#9A999E"/>
				<stop  offset="1" style="stop-color:#9A999E"/>
			</linearGradient>
			<path class="st4" d="M182.6,948.4C36.3,821.4-36.1,709.1,0.3,649.8c55-89.5,335-21.1,661.6,172.4c-8.3-5.2-16.6-10.3-25.1-15.5
				c-355-215.8-693.9-307.6-756.9-205c-61.2,99.8,161.1,346.7,500.1,558.7C301.3,1098.5,234.5,1026.6,182.6,948.4z"/>
		</g>
		<path class="st5" d="M2177.3,1288.7L2177.3,1288.7c-16.6-20.9-36.6-51.4-22.2-62.3c0,0,141.3-56.2,127.4-78.8
			c-13.9-22.6-84.4,6.8-84.4,6.8l-104.1,40c0,0-21.2,6.6-52.5-1.6c-31.3-8.3-145.3-38-161.4-26.4l128.3,54.2c0,0-29.3,28-42.1,22.9
			c-12.9-5.1-55.4-34.5-55.4-34.5l-12.4,5.4l17.5,44.8l-71.4-7.8l-8,4.2l70.8,26.5l-1.2,9.6l11.7-2.7l31.4,23.9l12.9-5.4l-3.1-19.4
			c0,0,70.2-8.3,108.2-27.2c0,0,18.3-7.3,37.1,3.5c14.7,8.4,75.1,53.8,75.1,53.8C2190.3,1303.9,2177.3,1288.7,2177.3,1288.7z"/>
		
			<linearGradient id="SVGID_4_" gradientUnits="userSpaceOnUse" x1="605.3243" y1="912.4787" x2="1947.6711" y2="912.4787" gradientTransform="matrix(0.8639 0.5037 -0.5037 0.8639 517.0887 -325.7899)">
			<stop  offset="0" style="stop-color:#7AB7E5"/>
			<stop  offset="0.2071" style="stop-color:#78B4E3"/>
			<stop  offset="0.4129" style="stop-color:#71ACDD"/>
			<stop  offset="0.6182" style="stop-color:#649CD1"/>
			<stop  offset="0.822" style="stop-color:#5488BF"/>
			<stop  offset="1" style="stop-color:#4273AE"/>
		</linearGradient>
		<path class="st6" d="M452,987.6c502.9,463.4,1144,350.1,1431.7,209.6C1883.7,1197.1,1190.2,1511.6,452,987.6z"/>
		
			<linearGradient id="SVGID_5_" gradientUnits="userSpaceOnUse" x1="1003.987" y1="1572.2642" x2="2062.8101" y2="513.4412" gradientTransform="matrix(0.8639 0.5037 -0.5037 0.8639 517.0887 -325.7899)">
			<stop  offset="0" style="stop-color:#7AB7E5"/>
			<stop  offset="0.2071" style="stop-color:#78B4E3"/>
			<stop  offset="0.4129" style="stop-color:#71ACDD"/>
			<stop  offset="0.6182" style="stop-color:#649CD1"/>
			<stop  offset="0.822" style="stop-color:#5488BF"/>
			<stop  offset="1" style="stop-color:#4273AE"/>
		</linearGradient>
		<path class="st7" d="M531.8,1308.1c710.9,416,1309.6,178.8,1551.7,12.2C2083.5,1320.3,1420.4,1743.5,531.8,1308.1z"/>
		<g>
			
				<linearGradient id="SVGID_6_" gradientUnits="userSpaceOnUse" x1="132.8838" y1="463.6887" x2="1064.5741" y2="463.6887" gradientTransform="matrix(0.8639 0.5037 -0.5037 0.8639 517.0887 -325.7899)">
				<stop  offset="0" style="stop-color:#4273AE"/>
				<stop  offset="1.745242e-02" style="stop-color:#4778B2"/>
				<stop  offset="8.975023e-02" style="stop-color:#568BC2"/>
				<stop  offset="0.1726" style="stop-color:#639BCF"/>
				<stop  offset="0.269" style="stop-color:#6EA8DA"/>
				<stop  offset="0.3878" style="stop-color:#75B1E1"/>
				<stop  offset="0.5534" style="stop-color:#79B6E4"/>
				<stop  offset="1" style="stop-color:#7AB7E5"/>
			</linearGradient>
			<path class="st8" d="M931,139.6c-70-10.3-139-13.8-205.3-9.8C546.4,140.4,398.2,204,308.2,309c-33.7,39.4-58.1,82.9-72.7,129.4
				c14.9-33.1,34.9-64.8,60.4-94.5c204.5-238.6,672.3-251.5,1077.3-24.3c-10-6.4-20.1-12.6-30.4-18.8
				C1211.5,222.4,1070.4,168.8,931,139.6z"/>
		</g>
		
			<linearGradient id="SVGID_7_" gradientUnits="userSpaceOnUse" x1="-35.6054" y1="729.9011" x2="1979.1798" y2="729.9011" gradientTransform="matrix(0.8639 0.5037 -0.5037 0.8639 517.0887 -325.7899)">
			<stop  offset="0" style="stop-color:#EDC73F"/>
			<stop  offset="0.1685" style="stop-color:#DFAA34"/>
			<stop  offset="0.3506" style="stop-color:#D3912A"/>
			<stop  offset="0.5306" style="stop-color:#CB8123"/>
			<stop  offset="0.7059" style="stop-color:#C6781F"/>
			<stop  offset="0.8712" style="stop-color:#C5751E"/>
		</linearGradient>
		<path class="st9" d="M651.4,1167.5C240.3,922,83.7,545,293.5,300.2C498.1,61.7,965.9,48.7,1370.8,276c-10-6.3-20.1-12.6-30.4-18.8
			C906.2-2.2,364.3,9,130.1,282.2c-234.2,273.2-72.1,705,362.1,964.4c499.1,298.2,1040.7,220.6,1369,51.7
			C1537,1397.7,1086.7,1427.6,651.4,1167.5z"/>
		<g>
			<path class="st10" d="M338.1,118.6c241.9-110.4,548.6-90.3,849.5,25.6C1177.2,139.4,667.5-107,338.1,118.6z"/>
		</g>
		
			<linearGradient id="SVGID_8_" gradientUnits="userSpaceOnUse" x1="114.3702" y1="1039.6932" x2="1979.1798" y2="1039.6932" gradientTransform="matrix(0.8639 0.5037 -0.5037 0.8639 517.0887 -325.7899)">
			<stop  offset="0" style="stop-color:#F1D041"/>
			<stop  offset="0.1931" style="stop-color:#EAC43B"/>
			<stop  offset="0.5563" style="stop-color:#D7A328"/>
			<stop  offset="1" style="stop-color:#BF780A"/>
		</linearGradient>
		<path class="st11" d="M651.4,1167.5c-386.7-231-548.2-578.3-391.2-822.4c-0.3,0.3-300.8,377.4,281.4,929.7
			c485.1,264.7,1002.1,186.8,1319.6,23.5C1537,1397.7,1086.7,1427.6,651.4,1167.5z"/>
		
			<linearGradient id="SVGID_9_" gradientUnits="userSpaceOnUse" x1="579.319" y1="682.145" x2="579.319" y2="88.7994" gradientTransform="matrix(0.8639 0.5037 -0.5037 0.8639 517.0887 -325.7899)">
			<stop  offset="0" style="stop-color:#EDC73F"/>
			<stop  offset="0.1685" style="stop-color:#DFAA34"/>
			<stop  offset="0.3506" style="stop-color:#D3912A"/>
			<stop  offset="0.5306" style="stop-color:#CB8123"/>
			<stop  offset="0.7059" style="stop-color:#C6781F"/>
			<stop  offset="0.8712" style="stop-color:#C5751E"/>
		</linearGradient>
		<path class="st12" d="M275.4,322.9L275.4,322.9c5.7-7.7,11.7-15.2,18.1-22.7C498.1,61.7,965.9,48.7,1370.8,276
			c-10-6.3-20.1-12.6-30.4-18.8c-150.2-89.7-313.3-147.1-472.2-172.4C425,65.3,275.4,322.9,275.4,322.9z"/>
	</g>
	<g>
		<linearGradient id="SVGID_10_" gradientUnits="userSpaceOnUse" x1="666.9991" y1="726.9071" x2="990.4033" y2="726.9071">
			<stop  offset="0" style="stop-color:#7AB7E5"/>
			<stop  offset="0.2071" style="stop-color:#78B4E3"/>
			<stop  offset="0.4129" style="stop-color:#71ACDD"/>
			<stop  offset="0.6182" style="stop-color:#649CD1"/>
			<stop  offset="0.822" style="stop-color:#5488BF"/>
			<stop  offset="1" style="stop-color:#4273AE"/>
		</linearGradient>
		<path class="st13" d="M913.4,892.9c-3.6-11.5-7.4-23.4-11.5-35.5c-4.1-12.2-8.2-24.3-12.2-36.3H765.1c-4,12.1-8.1,24.2-12.1,36.4
			c-4.1,12.2-7.8,24-11.3,35.4H667c12-35.8,23.4-68.8,34.2-99.2c10.8-30.3,21.3-58.9,31.6-85.8c10.3-26.8,20.5-52.3,30.5-76.4
			c10-24.1,20.4-47.7,31.2-70.7h68.1c10.5,23,20.8,46.6,31,70.7c10.2,24.1,20.4,49.6,30.8,76.4c10.3,26.8,20.9,55.4,31.7,85.8
			c10.8,30.3,22.2,63.4,34.2,99.2H913.4z M827.1,636.1c-1.6,4.8-3.9,11.4-7,19.7c-3.1,8.3-6.6,17.9-10.5,28.8
			c-4,10.9-8.4,22.8-13.2,35.9c-4.9,13.1-9.8,26.8-14.9,41.1h91.3c-4.9-14.4-9.6-28.2-14.2-41.3c-4.6-13.1-8.9-25.1-13-36
			c-4.1-10.9-7.7-20.5-10.9-28.8C831.5,647.3,829,640.8,827.1,636.1z"/>
		<linearGradient id="SVGID_11_" gradientUnits="userSpaceOnUse" x1="1031.4064" y1="726.9071" x2="1103.2803" y2="726.9071">
			<stop  offset="0" style="stop-color:#7AB7E5"/>
			<stop  offset="0.2071" style="stop-color:#78B4E3"/>
			<stop  offset="0.4129" style="stop-color:#71ACDD"/>
			<stop  offset="0.6182" style="stop-color:#649CD1"/>
			<stop  offset="0.822" style="stop-color:#5488BF"/>
			<stop  offset="1" style="stop-color:#4273AE"/>
		</linearGradient>
		<path class="st14" d="M1031.4,560.9h71.9v332h-71.9V560.9z"/>
		<linearGradient id="SVGID_12_" gradientUnits="userSpaceOnUse" x1="1176.9729" y1="724.9893" x2="1438.1875" y2="724.9893">
			<stop  offset="0" style="stop-color:#7AB7E5"/>
			<stop  offset="0.2071" style="stop-color:#78B4E3"/>
			<stop  offset="0.4129" style="stop-color:#71ACDD"/>
			<stop  offset="0.6182" style="stop-color:#649CD1"/>
			<stop  offset="0.822" style="stop-color:#5488BF"/>
			<stop  offset="1" style="stop-color:#4273AE"/>
		</linearGradient>
		<path class="st15" d="M1270.5,557.1c47.9,0,84.6,8.9,110.1,26.6c25.5,17.7,38.2,45.3,38.2,82.6c0,23.3-5.2,42.2-15.4,56.8
			c-10.3,14.5-25.1,26-44.5,34.3c6.4,8.3,13.2,17.8,20.3,28.5c7.1,10.7,14.1,21.9,21,33.5c6.9,11.7,13.6,23.8,20,36.4
			c6.5,12.6,12.5,25,18,37.1h-80.3c-5.9-10.9-11.8-21.9-17.8-33.1c-6-11.2-12.2-22-18.5-32.6c-6.3-10.5-12.6-20.5-18.7-29.9
			c-6.1-9.4-12.3-18-18.5-25.6h-35.5v121.2H1177V565.7c15.7-3.2,31.9-5.4,48.6-6.7C1242.3,557.7,1257.3,557.1,1270.5,557.1z
			 M1274.6,620.8c-5.2,0-9.9,0.2-14,0.5c-4.2,0.3-8.1,0.7-11.7,1v90.1h20.3c27,0,46.4-3.5,58.1-10.5c11.7-7,17.5-19,17.5-35.9
			c0-16.3-5.9-27.9-17.7-34.7C1315.1,624.2,1297.7,620.8,1274.6,620.8z"/>
		<linearGradient id="SVGID_13_" gradientUnits="userSpaceOnUse" x1="1452.0077" y1="726.9071" x2="1716.4529" y2="726.9071">
			<stop  offset="0" style="stop-color:#7AB7E5"/>
			<stop  offset="0.2071" style="stop-color:#78B4E3"/>
			<stop  offset="0.4129" style="stop-color:#71ACDD"/>
			<stop  offset="0.6182" style="stop-color:#649CD1"/>
			<stop  offset="0.822" style="stop-color:#5488BF"/>
			<stop  offset="1" style="stop-color:#4273AE"/>
		</linearGradient>
		<path class="st16" d="M1716.5,560.9v63.7h-96.3v268.3h-71.9V624.6H1452v-63.7H1716.5z"/>
		<linearGradient id="SVGID_14_" gradientUnits="userSpaceOnUse" x1="1762.5216" y1="724.9893" x2="2023.7302" y2="724.9893">
			<stop  offset="0" style="stop-color:#7AB7E5"/>
			<stop  offset="0.2071" style="stop-color:#78B4E3"/>
			<stop  offset="0.4129" style="stop-color:#71ACDD"/>
			<stop  offset="0.6182" style="stop-color:#649CD1"/>
			<stop  offset="0.822" style="stop-color:#5488BF"/>
			<stop  offset="1" style="stop-color:#4273AE"/>
		</linearGradient>
		<path class="st17" d="M1856,557.1c47.9,0,84.6,8.9,110.1,26.6c25.5,17.7,38.2,45.3,38.2,82.6c0,23.3-5.1,42.2-15.4,56.8
			c-10.3,14.5-25.1,26-44.5,34.3c6.4,8.3,13.2,17.8,20.3,28.5c7.1,10.7,14,21.9,21,33.5c6.9,11.7,13.6,23.8,20,36.4
			c6.4,12.6,12.4,25,18,37.1h-80.4c-5.8-10.9-11.8-21.9-17.8-33.1c-6-11.2-12.2-22-18.5-32.6c-6.3-10.5-12.6-20.5-18.7-29.9
			c-6.2-9.4-12.3-18-18.5-25.6h-35.5v121.2h-71.9V565.7c15.6-3.2,31.8-5.4,48.6-6.7C1827.9,557.7,1842.8,557.1,1856,557.1z
			 M1860.2,620.8c-5.2,0-9.9,0.2-14.1,0.5c-4.1,0.3-8.1,0.7-11.7,1v90.1h20.3c27,0,46.4-3.5,58.1-10.5c11.7-7,17.5-19,17.5-35.9
			c0-16.3-5.9-27.9-17.7-34.7C1900.6,624.2,1883.2,620.8,1860.2,620.8z"/>
		<linearGradient id="SVGID_15_" gradientUnits="userSpaceOnUse" x1="2051.8071" y1="726.9071" x2="2375.2288" y2="726.9071">
			<stop  offset="0" style="stop-color:#7AB7E5"/>
			<stop  offset="0.2071" style="stop-color:#78B4E3"/>
			<stop  offset="0.4129" style="stop-color:#71ACDD"/>
			<stop  offset="0.6182" style="stop-color:#649CD1"/>
			<stop  offset="0.822" style="stop-color:#5488BF"/>
			<stop  offset="1" style="stop-color:#4273AE"/>
		</linearGradient>
		<path class="st18" d="M2298.2,892.9c-3.6-11.5-7.4-23.4-11.4-35.5c-4.1-12.2-8.2-24.3-12.2-36.3h-124.7
			c-4,12.1-8.1,24.2-12.1,36.4c-4.1,12.2-7.8,24-11.3,35.4h-74.6c12-35.8,23.4-68.8,34.2-99.2c10.8-30.3,21.3-58.9,31.7-85.8
			c10.3-26.8,20.5-52.3,30.5-76.4c10-24.1,20.4-47.7,31.2-70.7h68.1c10.5,23,20.8,46.6,31,70.7c10.2,24.1,20.5,49.6,30.8,76.4
			c10.3,26.8,20.9,55.4,31.7,85.8c10.8,30.3,22.2,63.4,34.3,99.2H2298.2z M2211.9,636.1c-1.6,4.8-4,11.4-7.1,19.7
			c-3.1,8.3-6.6,17.9-10.5,28.8c-3.9,10.9-8.3,22.8-13.2,35.9c-4.9,13.1-9.8,26.8-14.8,41.1h91.3c-4.9-14.4-9.6-28.2-14.2-41.3
			c-4.6-13.1-8.9-25.1-13-36c-4.1-10.9-7.7-20.5-10.9-28.8C2216.3,647.3,2213.8,640.8,2211.9,636.1z"/>
		<linearGradient id="SVGID_16_" gradientUnits="userSpaceOnUse" x1="2354.0188" y1="726.9071" x2="2677.8884" y2="726.9071">
			<stop  offset="0" style="stop-color:#7AB7E5"/>
			<stop  offset="0.2071" style="stop-color:#78B4E3"/>
			<stop  offset="0.4129" style="stop-color:#71ACDD"/>
			<stop  offset="0.6182" style="stop-color:#649CD1"/>
			<stop  offset="0.822" style="stop-color:#5488BF"/>
			<stop  offset="1" style="stop-color:#4273AE"/>
		</linearGradient>
		<path class="st19" d="M2481.7,892.9c-12.7-27.9-25.3-56.8-37.6-86.8c-12.4-30-24.1-59.7-35.2-89c-11.1-29.4-21.3-57.4-30.7-84.3
			c-9.3-26.9-17.4-50.8-24.2-71.9h79.2c6,19.2,12.6,39.9,19.9,62.1c7.3,22.2,14.8,44.2,22.4,66.3c7.6,22,14.8,43.1,21.8,63.3
			c7,20.2,13.6,37.6,20,52.3c6-14.6,12.6-31.9,19.7-52.1c7.1-20.2,14.5-41.2,22.1-63.3c7.6-22,15-44.1,22.3-66.3
			c7.3-22.2,14-42.9,20-62.2h76.5c-7.2,21.2-15.4,45.2-24.7,71.9c-9.3,26.8-19.5,54.9-30.5,84.3c-11,29.4-22.7,59.1-35,89.1
			c-12.3,30-24.7,58.9-37.4,86.7H2481.7z"/>
		<linearGradient id="SVGID_17_" gradientUnits="userSpaceOnUse" x1="2718.8853" y1="726.9071" x2="2945.0811" y2="726.9071">
			<stop  offset="0" style="stop-color:#7AB7E5"/>
			<stop  offset="0.2071" style="stop-color:#78B4E3"/>
			<stop  offset="0.4129" style="stop-color:#71ACDD"/>
			<stop  offset="0.6182" style="stop-color:#649CD1"/>
			<stop  offset="0.822" style="stop-color:#5488BF"/>
			<stop  offset="1" style="stop-color:#4273AE"/>
		</linearGradient>
		<path class="st20" d="M2718.9,892.9v-332h215.6v62.8h-143.7v65.1h127.6v61.3h-127.6v80h154.3v62.8H2718.9z"/>
		<linearGradient id="SVGID_18_" gradientUnits="userSpaceOnUse" x1="2998.063" y1="726.9071" x2="3211.3677" y2="726.9071">
			<stop  offset="0" style="stop-color:#7AB7E5"/>
			<stop  offset="0.2071" style="stop-color:#78B4E3"/>
			<stop  offset="0.4129" style="stop-color:#71ACDD"/>
			<stop  offset="0.6182" style="stop-color:#649CD1"/>
			<stop  offset="0.822" style="stop-color:#5488BF"/>
			<stop  offset="1" style="stop-color:#4273AE"/>
		</linearGradient>
		<path class="st21" d="M3211.4,828.7v64.2h-213.3v-332h71.9v267.8H3211.4z"/>
	</g>
</g>
</svg>
